<svg height="512" width="512" xmlns="http://www.w3.org/2000/svg"><path d="M118.33 136.8H25.972c-10.202 0-18.471-8.27-18.471-18.471V25.971C7.501 15.77 15.771 7.5 25.972 7.5h92.357c10.202 0 18.471 8.27 18.471 18.471v92.357c.001 10.202-8.269 18.472-18.47 18.472z" fill="#df75a5"/><path d="M119.883 7.5c.195 2.565.294 5.157.294 7.772 0 55.853-45.278 101.131-101.131 101.131-3.905 0-7.755-.229-11.545-.66v2.507c0 10.202 8.27 18.471 18.471 18.471h92.357c10.201 0 18.471-8.27 18.471-18.471V25.893c.001-9.677-7.444-17.603-16.917-18.393z" fill="#dd5790"/><path d="M118.33 298.426H25.972c-10.202 0-18.471-8.27-18.471-18.471v-92.357c0-10.202 8.27-18.471 18.471-18.471h92.357c10.202 0 18.471 8.27 18.471 18.471v92.357c.001 10.201-8.269 18.471-18.47 18.471z" fill="#ffe07d"/><path d="M119.883 169.165c.195 2.565.294 5.157.294 7.772 0 55.853-45.278 101.131-101.131 101.131-3.905 0-7.755-.229-11.545-.66v2.507c0 10.202 8.27 18.471 18.471 18.471h92.357c10.201 0 18.471-8.27 18.471-18.471v-92.357c.001-9.678-7.444-17.603-16.917-18.393z" fill="#ffd064"/><path d="M399.154 136.8h-92.357c-10.202 0-18.471-8.27-18.471-18.471V25.971c0-10.202 8.27-18.471 18.471-18.471h92.357c10.202 0 18.471 8.27 18.471 18.471v92.357c0 10.202-8.27 18.472-18.471 18.472z" fill="#b3e59f"/><path d="M400.707 7.578c.195 2.565.294 5.157.294 7.772 0 55.853-45.278 101.131-101.131 101.131-3.905 0-7.755-.229-11.545-.66v2.507c0 10.202 8.27 18.471 18.471 18.471h92.357c10.201 0 18.471-8.27 18.471-18.471V25.971c.001-9.677-7.444-17.602-16.917-18.393z" fill="#95d6a4"/><g><path d="M399.154 298.426h-92.357c-10.202 0-18.471-8.27-18.471-18.471v-92.357c0-10.202 8.27-18.471 18.471-18.471h92.357c10.202 0 18.471 8.27 18.471 18.471v92.357c0 10.201-8.27 18.471-18.471 18.471z" fill="#90d8f9"/><path d="M400.707 169.204c.195 2.565.294 5.157.294 7.772 0 55.853-45.278 101.131-101.131 101.131-3.905 0-7.755-.229-11.545-.66v2.507c0 10.202 8.27 18.471 18.471 18.471h92.357c10.201 0 18.471-8.27 18.471-18.471v-92.357c.001-9.677-7.444-17.603-16.917-18.393z" fill="#75cef9"/></g><g><path d="M91.13 495.129l12.913 9.369h182.404l-10.913-35.326-2.004-36.621a40.38 40.38 0 00-1.74-9.719l-31.486-101.916c-3.234-10.467-14.127-16.867-24.702-14.007-11.102 3.002-17.413 14.577-14.047 25.471l-6.119-19.805c-3.234-10.467-14.126-16.867-24.702-14.007-11.102 3.002-17.413 14.577-14.047 25.471l-5.82-18.84c-3.234-10.467-14.127-16.867-24.702-14.007-11.102 3.002-17.413 14.577-14.047 25.471l-20.133-65.167c-3.234-10.467-14.127-16.867-24.702-14.007-11.102 3.002-17.413 14.577-14.047 25.471l35.781 115.818c-3.294-10.661-14.606-16.633-25.266-13.339-10.661 3.294-16.633 14.606-13.339 25.266l25.842 83.646a40.402 40.402 0 0014.876 20.778z" fill="#ffddce"/><path d="M165.501 504.498h120.946l-10.913-35.326-2.004-36.621a40.38 40.38 0 00-1.74-9.719l-20.235-65.499c-7.816 43.744-29.016 106.115-86.054 147.165z" fill="#ffcbbe"/></g><g><path d="M25.971 144.299h92.36c14.319 0 25.97-11.65 25.97-25.97V25.97C144.3 11.65 132.65 0 118.331 0h-51.12c-4.143 0-7.5 3.358-7.5 7.5s3.357 7.5 7.5 7.5h51.12c6.049 0 10.97 4.921 10.97 10.97v92.36c0 6.049-4.921 10.97-10.97 10.97h-92.36c-6.049 0-10.97-4.921-10.97-10.97V25.97c0-6.049 4.921-10.97 10.97-10.97h6.24a7.5 7.5 0 000-15h-6.24C11.651 0 .001 11.65.001 25.97v92.36c0 14.319 11.65 25.969 25.97 25.969z"/><path d="M43.96 111.484a7.502 7.502 0 009.679-4.339l4.206-11.044h28.651l4.16 11.022a7.503 7.503 0 007.018 4.854 7.5 7.5 0 007.015-10.15L80.633 38.085a8.935 8.935 0 00-8.371-5.76h-.009a8.933 8.933 0 00-8.356 5.741l-24.276 63.74a7.5 7.5 0 004.339 9.678zm28.276-53.169l8.599 22.786H63.558zM169.126 47.325h54.549c4.143 0 7.5-3.358 7.5-7.5s-3.357-7.5-7.5-7.5h-54.549a7.5 7.5 0 000 15zM169.126 79.65h34.346c4.143 0 7.5-3.358 7.5-7.5s-3.357-7.5-7.5-7.5h-34.346a7.5 7.5 0 000 15zM169.126 111.975h34.346c4.143 0 7.5-3.358 7.5-7.5s-3.357-7.5-7.5-7.5h-34.346a7.5 7.5 0 000 15zM169.126 208.95h54.549c4.143 0 7.5-3.358 7.5-7.5s-3.357-7.5-7.5-7.5h-54.549a7.5 7.5 0 000 15zM169.126 241.275h34.346c4.143 0 7.5-3.358 7.5-7.5s-3.357-7.5-7.5-7.5h-34.346a7.5 7.5 0 000 15zM169.126 273.601h34.346c4.143 0 7.5-3.358 7.5-7.5s-3.357-7.5-7.5-7.5h-34.346a7.5 7.5 0 000 15zM306.797 144.3h92.357c14.321 0 25.972-11.651 25.972-25.972V25.972C425.125 11.651 413.475 0 399.154 0h-92.357c-14.321 0-25.972 11.651-25.972 25.972v92.357c0 14.32 11.65 25.971 25.972 25.971zM295.825 25.972c0-6.05 4.922-10.972 10.972-10.972h92.357c6.05 0 10.972 4.922 10.972 10.972v92.357c0 6.05-4.922 10.972-10.972 10.972h-92.357c-6.05 0-10.972-4.922-10.972-10.972z"/><path d="M358.956 111.975c8.76 0 16.619-2.876 22.729-8.317a33.554 33.554 0 003.383-3.491 7.5 7.5 0 00-11.496-9.635 18.457 18.457 0 01-1.863 1.924c-3.367 2.999-7.657 4.519-12.753 4.519-13.688 0-24.825-11.137-24.825-24.825s11.137-24.825 24.825-24.825a24.69 24.69 0 0113.875 4.235 7.5 7.5 0 008.396-12.43 39.64 39.64 0 00-22.271-6.806c-21.96 0-39.825 17.866-39.825 39.825s17.865 39.826 39.825 39.826zM399.15 161.629h-46.17c-4.143 0-7.5 3.358-7.5 7.5s3.357 7.5 7.5 7.5h46.17c6.054 0 10.979 4.921 10.979 10.97v92.36c0 6.049-4.926 10.97-10.979 10.97H306.8c-6.049 0-10.97-4.921-10.97-10.97v-92.36c0-6.049 4.921-10.97 10.97-10.97h11.181c4.143 0 7.5-3.358 7.5-7.5s-3.357-7.5-7.5-7.5H306.8c-14.319 0-25.97 11.65-25.97 25.97v92.36c0 14.32 11.65 25.97 25.97 25.97h92.35c14.325 0 25.979-11.65 25.979-25.97v-92.36c0-14.319-11.654-25.97-25.979-25.97z"/><path d="M323.266 265.05c.067 2.327.603 4.711 2.348 6.373a7.496 7.496 0 005.283 2.177h.028c.554-.002 13.605-.053 18.817-.143 19.088-.334 32.941-17.023 32.941-39.682 0-23.821-13.506-39.825-33.607-39.825h-18.31a7.503 7.503 0 00-7.5 7.514v.053zm25.811-56.1c13.72 0 18.607 12.824 18.607 24.825 0 12.128-5.629 24.464-18.203 24.684-2.541.044-7.126.08-11.109.104-.024-7.646-.059-19.162-.059-24.859 0-4.758-.02-16.802-.033-24.754zM449.95 47.325h54.549c4.143 0 7.5-3.358 7.5-7.5s-3.357-7.5-7.5-7.5H449.95a7.5 7.5 0 000 15zM449.95 79.65h34.346c4.143 0 7.5-3.358 7.5-7.5s-3.357-7.5-7.5-7.5H449.95a7.5 7.5 0 000 15zM449.95 111.975h34.346c4.143 0 7.5-3.358 7.5-7.5s-3.357-7.5-7.5-7.5H449.95a7.5 7.5 0 000 15zM504.499 193.95H449.95c-4.143 0-7.5 3.358-7.5 7.5s3.357 7.5 7.5 7.5h54.549c4.143 0 7.5-3.358 7.5-7.5s-3.357-7.5-7.5-7.5zM484.296 226.275H449.95c-4.143 0-7.5 3.358-7.5 7.5s3.357 7.5 7.5 7.5h34.346c4.143 0 7.5-3.358 7.5-7.5s-3.357-7.5-7.5-7.5zM484.296 258.601H449.95c-4.143 0-7.5 3.358-7.5 7.5s3.357 7.5 7.5 7.5h34.346a7.5 7.5 0 007.5-7.5c0-4.143-3.357-7.5-7.5-7.5zM259.396 357.304l-11.931-38.608c-4.426-14.338-19.601-22.873-33.823-19.028-4.773 1.29-9.006 3.754-12.389 7.15-5.658-12.357-19.239-19.071-32.48-15.491-4.829 1.305-9.103 3.81-12.505 7.265a28.176 28.176 0 00-12.65-12.702c.45-1.927.682-3.914.682-5.933v-92.36c0-14.32-11.65-25.97-25.97-25.97H25.97c-14.319 0-25.97 11.65-25.97 25.97v92.36c0 14.32 11.65 25.97 25.97 25.97h32.695l15.918 51.529a27.609 27.609 0 00-13.048.815C49.85 361.883 42 372.519 42 384.737c0 2.738.417 5.487 1.244 8.183l25.843 83.658c3.091 9.968 9.188 18.482 17.641 24.631l12.91 9.36a7.467 7.467 0 004.396 1.428 7.5 7.5 0 004.408-13.573l-12.9-9.353c-5.809-4.225-10.002-10.081-12.126-16.928L57.58 388.508c-2.132-6.602 1.725-13.943 8.382-15.904 6.477-2.149 14.02 1.821 15.889 8.387l14.29 46.254-4.552 8.622a7.499 7.499 0 006.625 11.003 7.503 7.503 0 006.64-3.999l6.003-11.37a7.5 7.5 0 00.533-5.716L60.406 260.742c-4.226-16.574 18.733-23.298 24.409-7.039l38.624 125.014c3.293 9.417 16.94 5.115 14.332-4.428l-18.487-59.839c-.006-.018-.014-.035-.019-.053a12.602 12.602 0 011.03-9.834 12.608 12.608 0 017.817-6.132c6.516-1.755 13.512 2.275 15.585 8.997l18.348 59.362c3.293 9.417 16.94 5.115 14.332-4.428l-12.52-40.538a12.599 12.599 0 011.009-9.883 12.608 12.608 0 017.823-6.131c6.521-1.759 13.509 2.271 15.586 8.981l12.377 40.072c2.793 9.376 17.328 4.798 14.332-4.428l-6.287-20.352a12.606 12.606 0 011.038-9.801 12.615 12.615 0 017.823-6.133c6.522-1.766 13.505 2.263 15.577 8.974l11.931 38.61a7.495 7.495 0 009.38 4.951 7.5 7.5 0 004.95-9.38zM71.2 223.703c-1.345 0-3.846.007-6.594.017h-4.685v-14.77H71.2c4.067 0 7.376 3.309 7.376 7.376 0 4.068-3.309 7.377-7.376 7.377zm40.806 67.205l-12.664-41.001.006-.06c.021-.407.032-.817.032-1.229 0-8.009-3.804-15.141-9.696-19.699a22.246 22.246 0 003.892-12.594c0-12.338-10.038-22.376-22.376-22.376H52.421a7.5 7.5 0 00-7.5 7.5v64.649a7.501 7.501 0 003.376 6.263l5.736 18.567H25.971c-6.049 0-10.97-4.921-10.97-10.97v-92.36c0-6.049 4.921-10.97 10.97-10.97h92.36c6.049 0 10.97 4.921 10.97 10.97v92.36c0 1.084-.162 2.144-.466 3.158a27.675 27.675 0 00-4.63.832c-4.685 1.266-8.848 3.663-12.199 6.96zM282.978 467.836l-1.959-35.686a47.662 47.662 0 00-2.063-11.525l-9.23-29.88a7.5 7.5 0 00-14.332 4.428l9.234 29.892a32.62 32.62 0 011.414 7.905l2.01 36.61a7.51 7.51 0 00.322 1.802l10.91 35.33a7.49 7.49 0 009.379 4.953 7.499 7.499 0 004.953-9.379z"/></g></svg>