<svg xmlns="http://www.w3.org/2000/svg" version="1.1" id="Layer_1" x="0" y="0" viewBox="0 0 256 256" xml:space="preserve" width="512" height="512"><style>.st0{fill:#6dcc6d}.st1{fill:#ffcd29}.st2{fill:#55acd5}.st5{fill:#e9e9ea}.st6{fill:#f9d0b4}.st10{fill:#231f20}</style><g id="Layer_32"><path class="st0" d="M162.1 2.5H93.9c-9.2 0-16.6 7.5-16.6 16.6v29.1c0 9.2 7.5 16.6 16.6 16.6h17.6c2 0 4 1 5.1 2.7l9.9 15.1c.5.8 1.6 1 2.4.5.2-.1.4-.3.5-.5l9.9-15.1c1.1-1.7 3-2.7 5.1-2.7H162c9.2 0 16.6-7.5 16.6-16.6V19.1c.1-9.1-7.3-16.6-16.5-16.6z"/><path class="st1" d="M234.9 32.7h-49.8c-2.3 0-4.5.6-6.4 1.9v13.6c0 4.8-2.1 9.4-5.7 12.5v5.4c0 6.7 5.4 12.1 12.1 12.2H198c1.5 0 2.9.8 3.7 2l7.3 11c.4.6 1.2.7 1.8.4.1-.1.3-.2.4-.4l7.3-11c.8-1.2 2.2-2 3.7-2h12.9c6.7 0 12.1-5.4 12.1-12.2V44.9c-.2-6.7-5.6-12.1-12.3-12.2z"/><path class="st2" d="M77.3 48.2V34.6c-1.9-1.2-4.1-1.9-6.4-1.9H21.1C14.4 32.8 9 38.2 9 44.9v21.3c0 6.7 5.4 12.1 12.1 12.2H34c1.5 0 2.9.8 3.7 2l7.3 11c.4.6 1.2.7 1.8.4.1-.1.3-.2.4-.4l7.3-11c.8-1.2 2.2-2 3.7-2h12.9c6.7 0 12.1-5.4 12.2-12.2v-5.4c-3.9-3.2-6-7.8-6-12.6z"/><path d="M146.6 96.7c-2.5 0-4.9.7-7.1 2-2.5-4.2-7-6.7-11.8-6.8h-7.1c-13.8 0-24.9 11.2-25 25v11.2c2.2-1.8 5.1-2.5 7.8-2.1v-1.2c0-.7.6-1.3 1.3-1.3h.3c4.4.9 17.4 2.5 26.2-8.6.4-.6 1.3-.7 1.8-.2l.1.1c2 2 7.3 6 17.4 6.3.7 0 1.2.6 1.2 1.3v3.6c3.1-.5 6.3.5 8.6 2.7v-18.2c0-7.6-6.1-13.8-13.7-13.8z" fill="#6d6c6b"/><path d="M45.2 104.8c-14.8 0-26.7 12-26.8 26.8v18.5c0 3.8.8 7.7 2.4 11.1 1.1 2.5 3.6 4 6.3 4h10.3v-2c-6.4-3.2-10.4-9.8-10.3-17v-8.4c0-1.2 1-2.2 2.2-2.2h.7c5.6 0 10.9-2.5 14.4-6.9.8-.9 2.1-1.1 3.1-.3l.3.3c3.5 4.4 8.8 6.9 14.4 6.9 1.2 0 2.2.9 2.2 2.1v8.8c0 6.8-3.8 13.1-9.8 16.4v2.3h8.6c2.7 0 5.2-1.6 6.3-4 1.6-3.5 2.5-7.3 2.4-11.1v-18.5c0-14.8-12-26.8-26.7-26.8z" fill="#898989"/><path class="st5" d="M210 101.5c-14.3 0-26 10.9-26 24.3v8.3c1.3-.8 2.9-1.2 4.4-1.2.4 0 .9 0 1.3.1v-.5s5.6-3.1 5.6-7.9v-.1c0-2.2 1.8-3.9 3.9-3.9.3 0 .6 0 .9.1 6.5 1.4 13.2 1.4 19.6 0 2.1-.5 4.2.7 4.8 2.8.1.3.1.6.1.9v.1c0 4.7 5.6 7.9 5.6 7.9v.5c.4-.1.9-.1 1.3-.1 1.5 0 3.1.4 4.4 1.2v-8.3c.1-13.2-11.6-24.2-25.9-24.2z"/><path class="st6" d="M45.7 165.3c-2.9 0-5.7-.7-8.3-2v6.9l2.9 8.4c.2.5.6.8 1.2.8h9c.5 0 1-.3 1.2-.8l2.9-8.4V163c-2.7 1.5-5.8 2.3-8.9 2.3zM231.6 133c-.5 0-.9 0-1.4.1 0 .4.1.8.1 1.3v13.1c0 .4 0 .9-.1 1.3.4.1.9.1 1.4.1 4.4.3 8.2-3 8.5-7.4s-3-8.2-7.4-8.5c-.4-.1-.7-.1-1.1 0zM189.7 134.3c0-.4 0-.9.1-1.3-.4-.1-.9-.1-1.4-.1-4.4-.3-8.2 3-8.5 7.4s3 8.2 7.4 8.5h1.1c.5 0 .9 0 1.4-.1 0-.4-.1-.8-.1-1.3v-13.1z"/><path class="st6" d="M224.7 124.7v-.1c0-2.2-1.8-3.9-3.9-3.9-.3 0-.6 0-.9.1-6.5 1.4-13.2 1.4-19.6 0-2.1-.5-4.2.7-4.8 2.8-.1.3-.1.6-.1.9v.1c0 4.7-5.6 7.9-5.6 7.9V147c0 9.8 7.8 18.4 18.3 19.3 12 1.1 22.3-7.8 22.3-18.9v-14.9c-.1.1-5.7-3.1-5.7-7.8zM153.4 125.9c-.5 0-1.1 0-1.6.1 0 .5.1 1.1.1 1.6v16.7c0 .5 0 1.1-.1 1.6 5.5.9 10.7-2.8 11.6-8.3.9-5.5-2.8-10.7-8.3-11.6-.6-.1-1.2-.1-1.7-.1zM103.5 127.6c0-.5 0-1.1.1-1.6-5.5-.9-10.7 2.8-11.6 8.3s2.8 10.7 8.3 11.6c1.1.2 2.3.2 3.4 0 0-.5-.1-1.1-.1-1.6l-.1-16.7z"/><path class="st6" d="M151.8 122.4c0-.7-.6-1.2-1.2-1.3-10-.3-15.3-4.3-17.4-6.3-.5-.5-1.3-.5-1.8 0l-.1.1c-8.8 11.1-21.9 9.5-26.2 8.6-.7-.1-1.4.3-1.5 1v19.8c.1 13.4 11 24.1 24.3 24 13.2-.1 23.9-10.8 24-24v-21.5c-.1-.2-.1-.3-.1-.4z"/><path class="st6" d="M127.6 168.5c-3.7 0-7.4-.9-10.8-2.6v8.9l3.8 10.9c.2.6.8 1.1 1.5 1.1h11.7c.7 0 1.3-.4 1.5-1.1l3.8-10.9v-9.3c-3.5 2-7.4 3-11.5 3zM62.1 135.7c-5.6 0-10.9-2.5-14.5-6.9-.8-.9-2.1-1.1-3.1-.3l-.3.3c-3.5 4.4-8.8 6.9-14.4 6.9h-.6c-1.2 0-2.2.9-2.2 2.1v8.5c-.1 9.7 7.2 17.9 16.8 19 10.3 1 19.4-6.5 20.4-16.8.1-.6.1-1.2.1-1.7V138c.1-1.4-.9-2.3-2.2-2.3.1 0 0 0 0 0zM208 166.3c-2.3-.2-4.5-.8-6.6-1.7v5.7l2.9 8.4c.2.5.6.8 1.2.8h9c.5 0 1-.3 1.2-.8l2.9-8.4v-5.6c-3.3 1.3-7 1.9-10.6 1.6z"/><path class="st5" d="M179.4 246.9l-3-53.1c-.2-4.2-3.1-7.7-7.2-8.7l-18.8-4.7-11.3-5.6-3.8 10.9c-.2.6-.8 1.1-1.5 1.1h-11.7c-.7 0-1.3-.4-1.5-1.1l-3.8-10.9-11.3 5.6-18.8 4.7c-4.1 1-7 4.6-7.2 8.7l-3 53.1c-.2 3.4 2.4 6.4 5.9 6.6H173c3.4 0 6.2-2.8 6.2-6.2.2-.1.2-.2.2-.4z"/><path d="M249.6 225.1l-1.8-31.6c-.5-8.3-6.3-15.4-14.4-17.4l-6.1-1.5-8.7-4.3-2.9 8.4c-.2.5-.6.8-1.2.8h-9c-.5 0-1-.3-1.2-.8l-2.9-8.4-8.7 4.3-6.1 1.5c-6 1.5-10.8 5.8-13.1 11.5 1.7 1.7 2.8 3.9 2.9 6.3l2.1 37h65.7c3 0 5.5-2.4 5.5-5.5-.1-.1-.1-.2-.1-.3z" fill="#b26e3b"/><path d="M69.4 176l-6.1-1.5-8.7-4.3-2.9 8.4c-.2.5-.6.8-1.2.8h-9c-.5 0-1-.3-1.2-.8l-2.9-8.4-8.7 4.3-6.1 1.5c-8.1 2-13.9 9.1-14.4 17.4L6.4 225c-.2 3 2.1 5.6 5.2 5.8h66l2.1-37c.1-2.4 1.2-4.7 2.9-6.3-2.4-5.7-7.2-10-13.2-11.5z" fill="#fc7783"/><path class="st1" d="M225 2c0-.2-.1-.3-.1-.5-.1-.1-.1-.3-.2-.4-.1-.1-.2-.3-.3-.4-1-1-2.5-1-3.5 0-.1.1-.2.2-.3.4-.1.1-.2.3-.2.4-.1.1-.1.3-.1.5s-.1.3-.1.5 0 .3.1.5c0 .2.1.3.1.5.1.2.1.3.2.4.1.1.2.3.3.4 1 .9 2.5.9 3.5 0 .1-.1.2-.2.3-.4.1-.1.2-.3.2-.4.1-.2.1-.3.1-.5s0-.3.1-.5c0-.2 0-.3-.1-.5z"/><path class="st2" d="M57 17.4c-.1-.3-.2-.6-.4-.9-.1-.1-.2-.3-.3-.4-1-.9-2.5-.9-3.5 0-.1.1-.2.2-.3.4-.1.1-.2.3-.2.4-.1.2-.1.3-.1.5-.1.3-.1.7 0 1 0 .2.1.3.1.5.1.1.1.3.2.4.1.1.2.3.3.4 1 1 2.5 1 3.5 0 .1-.1.2-.2.3-.4.1-.1.2-.3.2-.4.1-.1.1-.3.1-.5.2-.3.2-.7.1-1z"/><path d="M209.8 12.4c-3.8-.7-6.8-3.7-7.5-7.5 0-.1-.1-.2-.2-.1-.1 0-.1.1-.1.1-.7 3.8-3.7 6.8-7.5 7.5-.1 0-.2.1-.1.2 0 .1.1.1.1.1 3.8.7 6.8 3.7 7.5 7.5 0 .1.1.2.2.1.1 0 .1-.1.1-.1.7-3.8 3.7-6.8 7.5-7.5.1 0 .2-.1.1-.2 0 0 0-.1-.1-.1z" fill="#ea4647"/><path class="st0" d="M84.1 96.7h-1.8v-1.8c0-1.4-1.1-2.5-2.5-2.5s-2.5 1.1-2.5 2.5v1.8h-1.8c-1.4 0-2.5 1.1-2.5 2.5s1.1 2.5 2.5 2.5h1.8v1.8c0 1.4 1.1 2.5 2.5 2.5s2.5-1.1 2.5-2.5v-1.8h1.8c1.4 0 2.5-1.1 2.5-2.5s-1.1-2.5-2.5-2.5z"/><path class="st10" d="M162.1 0H93.9C83.4 0 74.8 8.6 74.8 19.1v29.1c0 10.6 8.6 19.1 19.1 19.1h17.6c1.2 0 2.3.6 3 1.6l9.9 15.1c1.3 1.9 3.9 2.5 5.9 1.2.5-.3.9-.7 1.2-1.2l9.9-15.1c.7-1 1.8-1.6 3-1.6H162c10.6 0 19.1-8.6 19.1-19.1V19.1c.1-10.5-8.5-19.1-19-19.1zm14.1 48.2c0 7.8-6.3 14.1-14.1 14.1h-17.6c-2.9 0-5.6 1.4-7.2 3.9L128 80.3l-9.3-14.1c-1.6-2.4-4.3-3.9-7.2-3.9H93.9c-7.8 0-14.1-6.3-14.1-14.1V19.1C79.8 11.3 86.1 5 93.9 5H162c7.8 0 14.1 6.3 14.1 14.1v29.1z"/><path class="st10" d="M234.9 30.2h-49.8c-2.7 0-5.4.8-7.8 2.2-.7.5-1.2 1.3-1.2 2.1v13.6c0 4.1-1.8 8-4.9 10.6-.5.5-.9 1.2-.9 1.9V66c0 8.1 6.6 14.6 14.6 14.7H198c.7 0 1.3.3 1.6.9l7.3 11c1.1 1.7 3.5 2.2 5.2 1.1.4-.3.8-.6 1.1-1.1l7.3-11c.4-.5 1-.9 1.6-.9H235c8.1 0 14.6-6.6 14.6-14.7V44.9c-.1-8.1-6.6-14.6-14.7-14.7zm9.6 35.9c0 5.3-4.3 9.6-9.6 9.7H222c-2.3 0-4.5 1.2-5.8 3.1l-6.2 9.4-6.2-9.4c-1.3-2-3.5-3.1-5.8-3.1h-12.9c-5.3 0-9.6-4.3-9.6-9.7v-4.3c3.7-3.6 5.7-8.5 5.7-13.6V36.1c1.2-.6 2.6-.9 3.9-.9h49.8c5.3 0 9.6 4.3 9.6 9.7v21.2zM84.7 58.9c-3.1-2.7-4.9-6.6-4.9-10.6V34.6c0-.9-.4-1.7-1.2-2.1-2.3-1.5-5-2.2-7.8-2.2H21.1c-8.1 0-14.6 6.6-14.6 14.6v21.3c0 8.1 6.6 14.6 14.6 14.7H34c.7 0 1.3.3 1.6.9l7.3 11c1.1 1.7 3.5 2.2 5.2 1.1.4-.3.8-.6 1.1-1.1l7.3-11c.4-.5 1-.9 1.6-.9H71c8.1 0 14.6-6.6 14.7-14.7v-5.4c-.2-.8-.5-1.5-1-1.9zm-4.2 7.2c0 5.3-4.3 9.6-9.7 9.7H58c-2.3 0-4.5 1.2-5.8 3.1L46 88.3l-6.2-9.4c-1.3-2-3.5-3.1-5.8-3.1H21.1c-5.3 0-9.6-4.3-9.6-9.7V44.9c0-5.3 4.3-9.6 9.6-9.7h49.8c1.4 0 2.7.3 3.9.9v12.1c0 5.1 2.1 10 5.7 13.6v4.3zM154.8 17.9l-54.5.2c-1.4 0-2.5 1.1-2.5 2.5s1.1 2.5 2.5 2.5l54.5-.2c1.4 0 2.5-1.1 2.5-2.5s-1.1-2.5-2.5-2.5zM154.9 31.1l-54.5.2c-1.4 0-2.5 1.1-2.5 2.5s1.1 2.5 2.5 2.5l54.5-.2c1.4 0 2.5-1.1 2.5-2.5s-1.1-2.5-2.5-2.5zM154.9 44.3l-54.5.2c-1.4 0-2.5 1.1-2.5 2.5s1.1 2.5 2.5 2.5l54.5-.2c1.4 0 2.5-1.1 2.5-2.5 0-1.3-1.1-2.4-2.5-2.5zM67.8 200.3c-1.4 0-2.5 1.1-2.5 2.5v28.1c0 1.4 1.1 2.5 2.5 2.5s2.5-1.1 2.5-2.5v-28.1c0-1.4-1.1-2.5-2.5-2.5zM23.6 200.3c-1.4 0-2.5 1.1-2.5 2.5v28.1c0 1.4 1.1 2.5 2.5 2.5s2.5-1.1 2.5-2.5v-28.1c0-1.4-1.1-2.5-2.5-2.5zM55.8 160.9c-.8-.5-1.7-.5-2.5 0-2.4 1.3-5 1.9-7.7 2-2.5 0-5-.6-7.2-1.7-1.2-.6-2.7-.1-3.4 1.1-.2.3-.3.7-.3 1.1v6.9c0 .3 0 .6.1.8l2.9 8.4c.5 1.5 1.9 2.5 3.5 2.5h9c1.6 0 3-1 3.5-2.5l2.9-8.4c.1-.3.1-.5.1-.8V163c.4-.9-.1-1.7-.9-2.1zm-3.7 8.9l-2.5 7.2h-7.2l-2.5-7.2V167c4 1.1 8.2 1.1 12.2-.2v3zM231.6 130.5c-.6 0-1.2 0-1.7.1-1.3.2-2.2 1.3-2.1 2.6V148.5c-.1 1.3.8 2.5 2.1 2.7.6.1 1.1.1 1.7.1 6 0 11-4.7 11-10.4s-4.9-10.4-11-10.4zm1.2 15.7v-10.6c2.9.3 5.1 2.9 4.7 5.9-.2 2.4-2.2 4.4-4.7 4.7zM192.2 134.3v-1.1c.1-1.3-.8-2.5-2.1-2.7-.6-.1-1.1-.1-1.7-.1-6 0-11 4.7-11 10.4s4.9 10.4 11 10.4c.6 0 1.2 0 1.7-.1 1.3-.2 2.2-1.3 2.1-2.7v-14.1zm-5 11.9c-2.9-.3-5.1-2.9-4.7-5.9.3-2.5 2.2-4.5 4.7-4.7v10.6z"/><path class="st10" d="M231.5 130.4c-1.2-.7-4.3-3-4.3-5.7v-.1c0-1.9-.8-3.8-2.3-5-1.6-1.3-3.6-1.7-5.6-1.3-6.1 1.3-12.4 1.3-18.5 0-2-.5-4 0-5.6 1.3-1.5 1.2-2.4 3.1-2.3 5.1 0 2.7-3.1 5-4.3 5.7-.8.4-1.3 1.3-1.3 2.2V147c0 11.2 9 20.7 20.6 21.8.7.1 1.5.1 2.2.1 5.9 0 11.5-2.1 15.9-6.1 4.4-3.9 6.9-9.5 6.9-15.4v-14.9c-.1-.8-.6-1.7-1.4-2.1zm-3.7 17c0 4.5-2 8.7-5.3 11.7-3.9 3.5-9.1 5.2-14.2 4.7-9-.8-16-8.2-16-16.8v-13.1c2-1.4 5.6-4.7 5.6-9.2v-.2c0-.4.2-.7.5-1 .4-.3.9-.4 1.3-.3 6.8 1.5 13.9 1.5 20.8 0 .5-.1 1 0 1.3.3.3.2.5.6.5 1v.2c0 4.5 3.6 7.8 5.6 9.2l-.1 13.5zM231.8 200.3c-1.4 0-2.5 1.1-2.5 2.5v28.1c0 1.4 1.1 2.5 2.5 2.5s2.5-1.1 2.5-2.5v-28.1c0-1.4-1.1-2.5-2.5-2.5zM187.7 200.3c-1.4 0-2.5 1.1-2.5 2.5v28.1c0 1.4 1.1 2.5 2.5 2.5s2.5-1.1 2.5-2.5v-28.1c0-1.4-1.2-2.5-2.5-2.5zM181.9 246.8l-3-53.1c-.3-5.3-4-9.7-9.1-11l-18.5-4.7-11.1-5.4c-1.2-.6-2.7-.1-3.3 1.1 0 .1-.1.2-.1.3l-3.6 10.3h-10.4l-3.6-10.3c-.5-1.3-1.9-2-3.2-1.5-.1 0-.2.1-.3.1l-11.1 5.4-18.5 4.7c-5.1 1.3-8.8 5.7-9.1 11l-3 53.1c-.3 4.8 3.4 8.9 8.2 9.2H173c4.8 0 8.7-3.9 8.7-8.7.2-.2.2-.3.2-.5zm-6 3c-.7.7-1.7 1.2-2.7 1.2H82.8c-2.1 0-3.7-1.7-3.7-3.7v-.2l3-53.1c.2-3.1 2.3-5.7 5.3-6.4l18.8-4.7c.2 0 .3-.1.5-.2l8.8-4.3 2.9 8.3c.6 1.6 2.1 2.7 3.9 2.7H134c1.7 0 3.3-1.1 3.9-2.7l2.9-8.3 8.8 4.3c.2.1.3.1.5.2l18.8 4.7c3 .7 5.1 3.4 5.3 6.4l3 53.1c-.3 1-.6 2-1.3 2.7zM153.4 123.4c-.7 0-1.3.1-2 .2-1.3.2-2.2 1.3-2.1 2.6 0 .5.1 1 .1 1.5v16.7c0 .5 0 1-.1 1.5-.1 1.3.8 2.4 2.1 2.6 6.9 1.1 13.3-3.6 14.4-10.4s-3.6-13.3-10.4-14.4c-.7-.3-1.4-.3-2-.3zm.9 20.1v-15.1c4.2.5 7.1 4.3 6.6 8.5-.4 3.4-3.1 6.1-6.6 6.6zM106 127.6c0-.5 0-1 .1-1.5.1-1.3-.8-2.4-2.1-2.6-6.9-1.1-13.3 3.6-14.4 10.4-1.1 6.9 3.6 13.3 10.4 14.4.7.1 1.3.2 2 .2s1.3-.1 2-.2c1.3-.2 2.2-1.3 2.1-2.6 0-.5-.1-1-.1-1.5v-16.6zm-5 15.9c-4.2-.5-7.1-4.3-6.6-8.5.4-3.4 3.1-6.2 6.6-6.6v15.1z"/><path class="st10" d="M154.3 122.3c0-2-1.7-3.7-3.7-3.7-9.3-.3-14.1-4-15.7-5.6-1.5-1.5-3.9-1.4-5.4 0l-.3.3c-7.8 9.8-19.2 8.7-23.8 7.7-2-.4-4.1.9-4.5 2.9-.1.3-.1.5-.1.8v19.4c0 14.7 11.9 26.7 26.7 26.7s26.7-11.9 26.7-26.7v-21.5l.1-.3zm-5 22c0 12-9.7 21.7-21.7 21.7s-21.7-9.7-21.7-21.7v-18c5.3.8 17.6 1.4 26.4-8.8 2.8 2.4 8.1 5.6 16.9 6.1v20.7z"/><path class="st10" d="M146.6 94.2c-2.1 0-4.3.4-6.3 1.3-3.1-3.8-7.7-6-12.6-6.1h-7.1c-15.2 0-27.4 12.3-27.5 27.5v11.2c0 1.4 1.1 2.5 2.5 2.5.6 0 1.1-.2 1.6-.5 1.6-1.4 3.8-1.9 5.9-1.6 1.4.2 2.6-.7 2.9-2.1v-.1c5.3.8 17.6 1.4 26.5-8.8 2.8 2.4 8.1 5.6 16.9 6.1v2.4c0 1.4 1.1 2.5 2.5 2.5h.4c.4-.1.8-.1 1.2-.1 2 0 3.9.8 5.3 2.1 1 1 2.6.9 3.5-.1.4-.5.7-1.1.7-1.7v-18.2c-.1-9-7.4-16.3-16.4-16.3zm11.3 30c-1.1-.4-2.3-.7-3.6-.8v-1.1c0-2-1.7-3.7-3.7-3.7-9.3-.3-14.1-4-15.7-5.6-1.5-1.5-3.9-1.4-5.4 0l-.3.3c-7.8 9.8-19.2 8.7-23.8 7.7-1.1-.2-2.3 0-3.2.8-.5.4-.9.9-1.1 1.5-1.1.1-2.1.3-3.1.6v-7.1c0-12.4 10.1-22.4 22.5-22.5h7.1c4 0 7.7 2.1 9.7 5.5.7 1.2 2.2 1.6 3.4.9 5.3-3.2 12.3-1.5 15.5 3.8 1.1 1.8 1.6 3.8 1.6 5.9l.1 13.8zM129.8 198.4c-.6-.6-1.4-.8-2.3-.7-.2 0-.3.1-.5.1-.2.1-.3.1-.4.2-.1.1-.3.2-.4.3-.1.1-.2.2-.3.4-.1.1-.2.3-.2.4-.1.2-.1.3-.1.5-.1.3-.1.7 0 1 0 .2.1.3.1.5.1.1.1.3.2.4.1.1.2.3.3.4.1.1.2.2.4.3.1.1.3.2.4.2.2.1.3.1.5.1s.3.1.5.1c1.4 0 2.5-1.1 2.5-2.5 0-.6-.3-1.3-.7-1.7zM129.8 211.3c-.6-.6-1.4-.8-2.3-.7-.2 0-.3.1-.5.1-.1.1-.3.1-.4.2-.1.1-.3.2-.4.3-.1.1-.2.2-.3.4-.1.1-.2.3-.2.4-.1.2-.1.3-.1.5-.1.3-.1.7 0 1 0 .2.1.3.1.5.1.1.1.3.2.4.1.1.2.3.3.4.1.1.2.2.4.3.1.1.3.2.4.2.2.1.3.1.5.1s.3 0 .5.1c.7 0 1.3-.3 1.8-.7.9-1 .9-2.5 0-3.5zM129.8 224.2c-.6-.6-1.4-.8-2.3-.7-.2 0-.3.1-.5.1-.2.1-.3.1-.4.2-.1.1-.3.2-.4.3-.1.1-.2.2-.3.4-.1.1-.2.3-.2.4-.1.2-.1.3-.1.5-.1.3-.1.7 0 1 0 .2.1.3.1.5.1.1.1.3.2.4.1.1.2.3.3.4.1.1.2.2.4.3.1.1.3.2.4.2.2.1.3.1.5.1s.3 0 .5.1c.7 0 1.3-.3 1.8-.7.9-.9.9-2.5 0-3.5zM129.8 237.1c-.6-.6-1.4-.8-2.3-.7-.2 0-.3.1-.5.1-.2.1-.3.1-.4.2-.1.1-.3.2-.4.3-.1.1-.2.2-.3.4-.1.1-.2.3-.2.4-.1.2-.1.3-.1.5-.1.3-.1.7 0 1 0 .2.1.3.1.5.1.1.1.3.2.4.1.1.2.3.3.4.1.1.2.2.4.3.1.1.3.2.4.2.2.1.3.1.5.1h.5c1.4 0 2.5-1.1 2.5-2.5 0-.5-.3-1.1-.7-1.6zM156.3 214.6c-1.4 0-2.5 1.1-2.5 2.5v36.4c0 1.4 1.1 2.5 2.5 2.5s2.5-1.1 2.5-2.5v-36.4c0-1.4-1.1-2.5-2.5-2.5zM99 214.6c-1.4 0-2.5 1.1-2.5 2.5v36.4c0 1.4 1.1 2.5 2.5 2.5s2.5-1.1 2.5-2.5v-36.4c0-1.4-1.1-2.5-2.5-2.5zM140.4 163.4c-.8-.5-1.7-.5-2.5 0-3.2 1.7-6.7 2.6-10.3 2.6-3.4 0-6.7-.8-9.7-2.3-1.2-.6-2.7-.1-3.4 1.1-.2.3-.3.7-.3 1.1v8.9c0 .3 0 .6.1.8l3.8 10.9c.6 1.6 2.1 2.7 3.9 2.7h11.7c1.7 0 3.3-1.1 3.9-2.7l3.8-10.9c.1-.3.1-.5.1-.8v-9.3c.1-.9-.3-1.7-1.1-2.1zm-3.8 11l-3.5 9.9h-10.4l-3.5-9.9v-4.8c5.6 1.8 11.7 1.7 17.3-.2l.1 5zM65.5 134.6c-.9-.9-2.1-1.4-3.4-1.4v2.5-2.5c-4.9 0-9.4-2.2-12.5-6-1.6-2-4.6-2.3-6.6-.7-.3.2-.5.4-.7.7-3.1 3.9-7.9 6.1-13 6-1.3-.1-2.5.4-3.4 1.3-.9.9-1.4 2.1-1.4 3.4v8.4c0 11 8.4 20.4 19.1 21.5.7.1 1.4.1 2 .1 11.7 0 21.2-9.5 21.2-21.2v-8.8c.1-1.3-.4-2.5-1.3-3.3zm-3.6 12c0 4.6-1.9 8.9-5.3 11.9-3.4 3.1-7.9 4.6-12.4 4.1-8.3-1-14.6-8.1-14.6-16.5v-8c6.3.1 12.4-2.7 16.4-7.5 3.9 4.7 9.7 7.5 15.9 7.5v8.5z"/><path class="st10" d="M45.2 102.3c-16.2 0-29.3 13.1-29.3 29.3v18.5c0 4.2.9 8.4 2.7 12.2 1.6 3.3 4.9 5.5 8.6 5.5h10.3c1.4 0 2.5-1.1 2.5-2.5v-2c0-.9-.5-1.8-1.4-2.2-5.5-2.9-9-8.6-9-14.9v-8c6.3.1 12.4-2.7 16.4-7.5 3.9 4.7 9.7 7.5 15.9 7.5v8.4c0 5.9-3.3 11.4-8.5 14.2-.8.4-1.3 1.3-1.3 2.2v2.3c0 1.4 1.1 2.5 2.5 2.5h8.6c3.7 0 7-2.1 8.6-5.5 1.8-3.8 2.7-8 2.7-12.2v-18.5c-.1-16.2-13.2-29.3-29.3-29.3zm24.2 47.8c0 3.5-.8 6.9-2.2 10.1-.7 1.6-2.3 2.6-4.1 2.6h-3.8c4.8-4 7.5-9.9 7.5-16.1v-8.8c0-1.2-.5-2.4-1.4-3.3-.9-.9-2.1-1.4-3.4-1.4-4.9 0-9.4-2.2-12.5-6-1.6-2-4.6-2.3-6.6-.7-.3.2-.5.4-.7.7-3.1 3.9-7.9 6.1-13 6-1.3-.1-2.5.4-3.4 1.3-.9.9-1.4 2.1-1.4 3.4v8.4c0 6.4 2.8 12.4 7.6 16.6h-5c-1.7 0-3.3-1-4.1-2.6-1.5-3.2-2.2-6.6-2.2-10.1v-18.5c0-13.4 10.9-24.3 24.3-24.3s24.3 10.9 24.3 24.3v18.4zM46 177c-1.4 0-2.5 1.1-2.5 2.5v11.2c0 1.4 1.1 2.5 2.5 2.5s2.5-1.1 2.5-2.5v-11.2c0-1.4-1.1-2.5-2.5-2.5zM223.1 198h-7.5c-1.4 0-2.5 1.1-2.5 2.5s1.1 2.5 2.5 2.5h7.5c1.4 0 2.5-1.1 2.5-2.5s-1.2-2.5-2.5-2.5zM210 99c-15.7 0-28.5 12-28.5 26.8v8.3c0 1.4 1.1 2.5 2.5 2.5.4 0 .9-.1 1.2-.3 1-.5 2.1-.8 3.2-.8.3 0 .6 0 .9.1 1.1.2 2.2-.4 2.7-1.5 1.9-1.4 5.8-4.7 5.8-9.4v-.2c0-.4.2-.7.5-1 .4-.3.9-.4 1.3-.3 6.8 1.5 13.9 1.5 20.8 0 .5-.1 1 0 1.3.3.3.2.5.6.5 1v.2c0 4.7 3.9 8 5.8 9.4.4 1 1.5 1.7 2.7 1.5.3 0 .6-.1.9-.1 1.1 0 2.2.3 3.2.8 1.2.7 2.7.3 3.4-.9.2-.4.3-.8.3-1.2v-8.3C238.5 111 225.7 99 210 99zm23.5 31.6c-.6-.1-1.2-.2-1.8-.2l-.1-.1c-1.2-.7-4.3-3-4.3-5.8 0-1.9-.8-3.8-2.3-5-1.6-1.3-3.7-1.8-5.6-1.3-6.1 1.3-12.4 1.3-18.5 0-2-.5-4 0-5.6 1.3-1.5 1.2-2.4 3.1-2.3 5.1 0 2.7-3.1 5-4.3 5.7l-.1.1c-.6 0-1.2.1-1.8.2v-4.8c0-12 10.5-21.8 23.5-21.8s23.5 9.8 23.5 21.8l-.3 4.8zM220 162.5c-.7-.5-1.6-.5-2.4-.2-2.9 1.3-6.2 1.8-9.4 1.5-2-.2-4-.7-5.8-1.5-1.3-.6-2.7 0-3.3 1.3-.1.3-.2.7-.2 1v5.7c0 .3 0 .6.1.8l2.9 8.4c.5 1.5 1.9 2.5 3.5 2.5h9c1.6 0 3-1 3.5-2.5l2.9-8.4c.1-.3.1-.5.1-.8v-5.6c.2-1-.2-1.8-.9-2.2zm-3.9 7.3l-2.5 7.2h-7.2l-2.5-7.2v-1.7c1.3.3 2.6.6 3.9.7 2.8.3 5.6 0 8.3-.7v1.7zM219.9 148.4l-3.9-1.6c-1.9-.8-4.1-.4-5.6 1-.2.2-.5.2-.7 0-1.6-1.3-3.7-1.7-5.6-1l-3.9 1.6c-1.3.5-1.9 1.9-1.4 3.2.5 1.3 1.9 1.9 3.2 1.4l3.9-1.6c.2-.1.4 0 .5.1 2.1 1.8 5.1 1.8 7.2 0 .1-.1.3-.2.5-.1l3.9 1.6c1.3.5 2.7-.1 3.2-1.4.6-1.3 0-2.7-1.3-3.2z"/><path class="st10" d="M252.1 225l-1.8-31.6c-.5-9.4-7.1-17.4-16.3-19.7l-5.9-1.5-8.5-4.2c-1.2-.6-2.7-.1-3.3 1.1 0 .1-.1.2-.1.3l-2.6 7.6h-7.2l-2.6-7.6c-.5-1.3-1.9-2-3.2-1.5-.1 0-.2.1-.3.1l-8.5 4.2-5.9 1.5c-6.7 1.7-12.2 6.5-14.8 13-.4.9-.1 2 .6 2.7 1.3 1.2 2 2.9 2.1 4.7l2.1 37c.1 1.3 1.2 2.4 2.5 2.4h65.7c4.4 0 8-3.6 8-8v-.5zm-5.8 2.5c-.6.6-1.3.9-2.2.9h-63.3l-1.9-34.7c-.1-2.4-1-4.7-2.5-6.6 2.2-4.3 6.1-7.4 10.8-8.6l6.1-1.5c.2 0 .3-.1.5-.2l6.2-3 2 5.8c.5 1.5 1.9 2.5 3.5 2.5h9c1.6 0 3-1 3.5-2.5l2-5.8 6.2 3c.2.1.3.1.5.2l6.1 1.5c7 1.8 12.1 7.9 12.5 15.1l1.8 31.6c.1.9-.2 1.7-.8 2.3zM84.8 186.6c-2.6-6.5-8.1-11.3-14.8-13l-5.9-1.5-8.5-4.2c-1.2-.6-2.7-.1-3.3 1.1 0 .1-.1.2-.1.3l-2.6 7.6h-7.2l-2.6-7.6c-.5-1.3-1.9-2-3.2-1.5-.1 0-.2.1-.3.1l-8.5 4.2-5.9 1.5c-9.2 2.3-15.8 10.3-16.3 19.7L3.9 225c-.2 4.4 3.1 8.2 7.5 8.4H77.5c1.3 0 2.4-1 2.5-2.4l2.1-37c.1-1.8.9-3.4 2.1-4.7.8-.7 1-1.7.6-2.7zm-7.7 7.1l-1.9 34.7H11.9c-1.6 0-3-1.3-3-3v-.2l1.8-31.6c.4-7.3 5.5-13.4 12.5-15.1l6.1-1.5c.2 0 .3-.1.5-.2l6.2-3 2 5.8c.5 1.5 1.9 2.5 3.5 2.5h9c1.6 0 3-1 3.5-2.5l2-5.8 6.2 3c.2.1.3.1.5.2l6.1 1.5c4.7 1.2 8.6 4.3 10.8 8.6-1.5 1.9-2.4 4.2-2.5 6.6z"/></g></svg>