<svg xmlns="http://www.w3.org/2000/svg" viewBox="0 0 500 500"><path d="M465.32 267.67c4.34-30.18.73-61.54-10.74-92.65C434.51 120.63 393.75 71.68 340.74 47a166.59 166.59 0 00-68.09-16c-42-.51-77.49 17.32-107 45.89-23.09 22.33-44.74 47.32-73.12 63.19-26.87 15-51.28 35.67-58.49 67.48-6.38 28.16 5.29 57.32 24.37 78.1 12.45 13.56 28.88 22.67 41.44 36.09 16.83 18 14.68 34.36 16.08 57.43 2.93 48.2 45.3 81.44 89.14 92.84 54.66 14.21 105.86-6.18 146.89-42.65 26.52-23.57 53.77-47.1 75.68-75.17 20.75-26.62 33.29-55.97 37.68-86.53z" fill="#3f36b9"/><path d="M465.32 267.67c4.34-30.18.73-61.54-10.74-92.65C434.51 120.63 393.75 71.68 340.74 47a166.59 166.59 0 00-68.09-16c-42-.51-77.49 17.32-107 45.89-23.09 22.33-44.74 47.32-73.12 63.19-26.87 15-51.28 35.67-58.49 67.48-6.38 28.16 5.29 57.32 24.37 78.1 12.45 13.56 28.88 22.67 41.44 36.09 16.83 18 14.68 34.36 16.08 57.43 2.93 48.2 45.3 81.44 89.14 92.84 54.66 14.21 105.86-6.18 146.89-42.65 26.52-23.57 53.77-47.1 75.68-75.17 20.75-26.62 33.29-55.97 37.68-86.53z" fill="#fff" opacity=".7"/><g fill="#a3a3a3"><path d="M293.33 402.77c2.27 1 7.84.87 7.85.87s-1.2-3.64-1.31-3.86c-1.22-2.56-5.08-6.78-8.23-6.35a3.75 3.75 0 00-3 4.7c.51 2.18 2.75 3.8 4.69 4.64z"/><path d="M295.25 418.9c2.36.35 7.33-1.09 7.72-1.21a67.5 67.5 0 003 8.34c.68 1.58 1.42 3.15 2.18 4.72-.45-.66-.86-1.25-.93-1.33-1.85-2.14-6.7-5.19-9.61-3.95a3.75 3.75 0 00-1.61 5.33c1.08 2 3.66 2.94 5.76 3.24s6.38-.83 7.51-1.15c.29.6.58 1.2.88 1.79 1.44 2.87 2.89 5.72 4.23 8.56.47 1 .89 2 1.33 3-.41-.59-.75-1.08-.81-1.15-1.86-2.14-6.7-5.19-9.62-4a3.75 3.75 0 00-1.66 5.33c1.08 2 3.66 2.93 5.75 3.24s6-.73 7.31-1.1c.41 1 .82 2.08 1.17 3.11.23.71.49 1.37.68 2.09s.39 1.42.59 2.11c.32 1.36.67 2.75.95 4.08.2.93.38 1.81.56 2.7-.45-1-1.39-2.94-1.49-3.1-1.5-2.4-5.83-6.14-8.9-5.36a3.75 3.75 0 00-2.45 5c.77 2.1 3.17 3.45 5.19 4.07 2.23.68 7.16.06 7.78 0 .3 1.47.57 2.91.81 4.27.52 3 .92 5.69 1.23 8h2.08c-.37-2.35-.84-5.16-1.47-8.31-.29-1.49-.63-3.09-1-4.72a41.65 41.65 0 004.33-2c1.63 1.76 5.79 3.81 6.33 4.08-.57 1.39-1.13 2.74-1.69 4-1.15 2.65-2.24 5-3.2 7h2.24c.83-1.84 1.75-3.93 2.7-6.26.58-1.41 1.17-2.93 1.76-4.5.6.13 5.48 1.12 7.76.61 2.06-.47 4.56-1.64 5.48-3.68a3.75 3.75 0 00-2.07-5.19c-3-1-7.59 2.41-9.28 4.69-.1.13-1 1.71-1.57 2.72.24-.64.48-1.26.72-1.93.48-1.3.92-2.62 1.4-4l.63-2.1c.22-.7.37-1.46.56-2.2.41-1.72.74-3.48 1-5.26 1.15.42 5.24 1.85 7.36 1.7s4.76-.93 6-2.8a3.76 3.76 0 00-1.26-5.45c-2.82-1.45-7.87 1.23-9.88 3.23-.13.12-1.4 1.72-2.09 2.61.17-1.07.34-2.14.48-3.23.39-3.15.68-6.34 1-9.53.1-1 .21-1.95.31-2.92.4.15 5.23 2 7.61 1.78 2.11-.14 4.76-.92 6-2.8a3.76 3.76 0 00-1.26-5.44c-2.82-1.45-7.88 1.23-9.89 3.23-.15.15-2 2.44-2.42 3 .22-2.14.47-4.27.8-6.37a64.59 64.59 0 011.73-8.39c.19.07 5.22 2 7.66 1.8 2.11-.15 4.75-.93 6-2.81a3.75 3.75 0 00-1.27-5.44c-2.82-1.45-7.87 1.23-9.88 3.23-.15.15-2.13 2.63-2.46 3.1.05-.16.08-.33.13-.49a48 48 0 013.32-7.92c.72-1.41 1.49-2.72 2.27-4 .9.45 5 2.46 7.24 2.55s4.83-.4 6.25-2.13a3.76 3.76 0 00-.65-5.55c-2.65-1.75-8 .36-10.18 2.12-.12.1-1.24 1.21-2 2 .36-.56.72-1.15 1.08-1.68 1.32-2 2.66-3.74 3.86-5.28.69-.87 1.33-1.65 1.93-2.36 1.12 0 5.6-.16 7.57-1.08s4.1-2.58 4.57-4.77a3.76 3.76 0 00-3.14-4.62c-3.16-.34-6.91 4-8.06 6.57-.1.23-1.25 3.9-1.19 3.9h.06c-.59.68-1.23 1.41-1.9 2.23-1.24 1.51-2.62 3.24-4 5.21a69.55 69.55 0 00-4.14 6.59 49 49 0 00-3.53 8v.1c0-.93 0-3.53-.05-3.73-.36-2.81-2.72-8-5.84-8.6a3.76 3.76 0 00-4.33 3.53c-.18 2.23 1.44 4.47 3 5.88 1.77 1.59 6.71 3.13 7.11 3.25a67.22 67.22 0 00-2.09 8.61c-.3 1.7-.55 3.42-.79 5.15v-1.63c-.36-2.81-2.72-8-5.83-8.6a3.76 3.76 0 00-4.33 3.54c-.19 2.23 1.43 4.46 3 5.87s5.78 2.83 6.9 3.18c-.08.67-.17 1.33-.25 2-.38 3.18-.75 6.36-1.2 9.47-.16 1.09-.36 2.17-.55 3.24v-1.41c-.37-2.81-2.72-8-5.84-8.6a3.76 3.76 0 00-4.33 3.54c-.18 2.23 1.44 4.46 3 5.87s5.38 2.69 6.7 3.12c-.23 1.09-.46 2.19-.73 3.24-.21.71-.35 1.41-.6 2.11s-.45 1.4-.67 2.09c-.48 1.31-1 2.66-1.46 3.93-.33.88-.67 1.72-1 2.56.17-1.09.46-3.23.46-3.41a14.5 14.5 0 00-2-7.09 4.63 4.63 0 000-.83 3.75 3.75 0 00-4.59-3.18c-3.07.81-5 6.19-5.16 9 0 .17.1 2 .19 3.14-.15-.67-.3-1.32-.46-2-.32-1.36-.69-2.7-1.07-4.15q-.31-1-.63-2.1c-.2-.7-.5-1.42-.74-2.14-.61-1.66-1.31-3.31-2-5 1.19-.28 5.38-1.35 7.07-2.64s3.46-3.4 3.44-5.64a3.75 3.75 0 00-4.05-3.84c-3.16.34-5.89 5.36-6.47 8.14 0 .17-.22 2.21-.3 3.33-.45-1-.89-2-1.38-3-1.41-2.84-2.93-5.67-4.43-8.5-.46-.86-.9-1.73-1.36-2.6.43-.1 5.45-1.26 7.34-2.71 1.67-1.29 3.45-3.39 3.44-5.63a3.76 3.76 0 00-4.06-3.85c-3.15.35-5.89 5.37-6.46 8.14 0 .21-.31 3.14-.34 3.89-1-1.91-2-3.82-2.84-5.75a65.22 65.22 0 01-3.1-8c.2 0 5.44-1.23 7.37-2.72 1.68-1.29 3.46-3.39 3.45-5.63a3.77 3.77 0 00-4.06-3.85c-3.15.35-5.89 5.37-6.46 8.14 0 .22-.33 3.38-.34 3.95-.05-.16-.12-.32-.16-.47a48.23 48.23 0 01-1.61-8.45 56.53 56.53 0 01-.3-4.56c1-.13 5.56-.73 7.45-1.88s3.81-3 4-5.22a3.76 3.76 0 00-3.61-4.27c-3.17 0-6.44 4.69-7.32 7.39-.05.14-.36 1.69-.58 2.81v-2c0-2.4.16-4.6.31-6.54.09-1.1.2-2.1.31-3 .92-.63 4.58-3.22 5.71-5.08s2-4.41 1.18-6.49a3.75 3.75 0 00-5.16-2.13c-2.82 1.46-3.56 7.13-3.1 9.93 0 .24 1.11 3.94 1.16 3.91-.12.9-.25 1.86-.36 2.91-.19 1.95-.39 4.14-.45 6.55a66.92 66.92 0 00.19 7.78 48.31 48.31 0 001.44 8.59v.09c-.5-.78-2-2.92-2.1-3.08-1.85-2.14-6.69-5.19-9.61-3.95a3.75 3.75 0 00-1.67 5.33c1.03 2.01 3.62 2.98 5.71 3.28z"/><path d="M349.65 404c.05 0 1-3.7 1-3.94.39-2.81-.5-8.46-3.36-9.84a3.75 3.75 0 00-5.1 2.26c-.77 2.11.2 4.69 1.35 6.46 1.39 2.06 6.1 5.06 6.11 5.06zM167.25 426.39c1.54.67 5.3.59 5.3.59s-.81-2.46-.88-2.61c-.82-1.73-3.43-4.58-5.56-4.29a2.52 2.52 0 00-2 3.17c.32 1.48 1.83 2.57 3.14 3.14z"/><path d="M168.55 437.29c1.59.23 4.95-.75 5.22-.82a44.8 44.8 0 002 5.63c.46 1.07 1 2.13 1.47 3.19-.3-.45-.58-.85-.62-.9-1.26-1.45-4.53-3.51-6.5-2.67a2.53 2.53 0 00-1.12 3.6 5.27 5.27 0 003.89 2.19 16.62 16.62 0 005.07-.78l.6 1.22c1 1.93 1.95 3.86 2.85 5.78.32.68.61 1.35.9 2-.27-.4-.51-.73-.55-.78-1.25-1.45-4.52-3.51-6.49-2.67a2.54 2.54 0 00-1.13 3.6 5.29 5.29 0 003.89 2.19 16.25 16.25 0 004.94-.74c.27.7.55 1.41.79 2.1.15.48.33.93.45 1.41s.27 1 .4 1.43c.22.91.45 1.86.65 2.76.13.62.25 1.22.38 1.82-.31-.68-.94-2-1-2.09-1-1.62-3.94-4.16-6-3.63a2.53 2.53 0 00-1.66 3.39 5.31 5.31 0 003.51 2.76c1.51.46 4.84 0 5.25 0 .2 1 .39 2 .55 2.88.35 2 .62 3.85.83 5.38h1.4c-.24-1.59-.56-3.48-1-5.61-.2-1-.44-2.09-.69-3.19a27.63 27.63 0 002.94-1.38 17.94 17.94 0 004.27 2.75c-.39.95-.77 1.86-1.14 2.71-.78 1.79-1.52 3.37-2.17 4.72h1.52c.56-1.24 1.18-2.66 1.82-4.23.39-.95.79-2 1.19-3 .41.08 3.7.75 5.24.4a5.31 5.31 0 003.71-2.48 2.53 2.53 0 00-1.4-3.5c-2-.69-5.13 1.62-6.27 3.16-.07.09-.68 1.16-1.06 1.84.16-.44.32-.85.48-1.3.33-.89.62-1.78.95-2.73l.42-1.42c.15-.47.25-1 .38-1.49.28-1.16.5-2.35.7-3.55a16.79 16.79 0 005 1.14c1.43-.1 3.22-.62 4-1.89a2.53 2.53 0 00-.85-3.67c-1.9-1-5.32.82-6.68 2.17-.08.09-.94 1.17-1.41 1.77.12-.73.23-1.45.32-2.18.27-2.13.47-4.29.68-6.44.06-.66.13-1.32.2-2 .28.1 3.54 1.31 5.14 1.2 1.43-.1 3.22-.62 4-1.89a2.54 2.54 0 00-.85-3.68c-1.9-1-5.32.83-6.67 2.18-.11.1-1.35 1.66-1.64 2.07.15-1.45.32-2.89.54-4.31a44 44 0 011.23-5.66c.13.05 3.53 1.34 5.17 1.22a5.29 5.29 0 004-1.89 2.54 2.54 0 00-.85-3.68c-1.91-1-5.32.83-6.68 2.18-.1.11-1.44 1.78-1.66 2.1 0-.11 0-.22.09-.33a32 32 0 012.24-5.36c.49-.95 1-1.83 1.53-2.68.61.3 3.4 1.66 4.89 1.72s3.27-.27 4.23-1.44a2.54 2.54 0 00-.45-3.75c-1.78-1.18-5.37.24-6.87 1.44-.08.06-.84.81-1.38 1.37.25-.38.49-.78.73-1.14.89-1.35 1.8-2.53 2.61-3.57.46-.59.89-1.11 1.3-1.59.76 0 3.79-.11 5.11-.73s2.78-1.74 3.09-3.22a2.53 2.53 0 00-2.12-3.12c-2.13-.23-4.66 2.69-5.44 4.44-.07.15-.85 2.63-.81 2.63-.41.46-.83.95-1.29 1.5-.83 1-1.77 2.19-2.7 3.53a45.09 45.09 0 00-2.79 4.45 34.2 34.2 0 00-2.39 5.37.19.19 0 010 .07v-2.52c-.25-1.9-1.84-5.42-3.94-5.81a2.54 2.54 0 00-2.93 2.39c-.12 1.51 1 3 2 4s4.54 2.11 4.8 2.19a46.65 46.65 0 00-1.41 5.82c-.2 1.15-.37 2.31-.53 3.48v-1.1c-.24-1.9-1.83-5.42-3.94-5.81a2.55 2.55 0 00-2.93 2.39c-.12 1.5 1 3 2 4a17 17 0 004.66 2.15c-.06.44-.12.89-.17 1.34-.26 2.15-.5 4.3-.81 6.39-.11.74-.24 1.47-.37 2.19v-.95c-.24-1.89-1.83-5.42-3.94-5.81a2.54 2.54 0 00-2.93 2.39 5.3 5.3 0 002 4 16.2 16.2 0 004.52 2.1c-.15.74-.31 1.48-.49 2.19-.14.48-.24 1-.4 1.43s-.31.94-.46 1.41c-.32.88-.65 1.8-1 2.65-.23.6-.46 1.17-.69 1.73.12-.73.31-2.17.32-2.3a10 10 0 00-1.32-4.79 3.6 3.6 0 000-.56 2.53 2.53 0 00-3.1-2.15c-2.07.55-3.38 4.19-3.48 6.1 0 .11.07 1.34.13 2.12-.11-.45-.2-.89-.32-1.35-.21-.92-.46-1.83-.72-2.81-.14-.46-.28-.94-.43-1.41s-.33-1-.5-1.45c-.41-1.12-.88-2.24-1.37-3.35a16.42 16.42 0 004.77-1.79c1.14-.87 2.34-2.29 2.33-3.8a2.54 2.54 0 00-2.74-2.6c-2.13.23-4 3.63-4.37 5.5 0 .12-.15 1.49-.2 2.25-.3-.67-.61-1.33-.94-2-1-1.92-2-3.83-3-5.74-.31-.58-.62-1.17-.92-1.76.29-.06 3.68-.85 4.95-1.83s2.34-2.29 2.33-3.8a2.54 2.54 0 00-2.74-2.6c-2.13.23-4 3.62-4.37 5.5 0 .14-.21 2.12-.23 2.63-.67-1.3-1.32-2.59-1.92-3.89a46.13 46.13 0 01-2.09-5.4c.13 0 3.67-.84 5-1.84 1.13-.87 2.34-2.29 2.33-3.81a2.53 2.53 0 00-2.74-2.59c-2.13.23-4 3.62-4.37 5.5 0 .14-.22 2.27-.23 2.66 0-.1-.08-.21-.11-.32a32.58 32.58 0 01-1.08-5.7 37.6 37.6 0 01-.21-3.09c.68-.08 3.76-.49 5-1.26s2.58-2 2.73-3.53a2.53 2.53 0 00-2.43-2.88c-2.15 0-4.36 3.17-4.95 5 0 .09-.24 1.14-.39 1.9v-1.35c0-1.62.11-3.1.21-4.42.06-.74.13-1.42.21-2a16.73 16.73 0 003.86-3.42c.74-1.22 1.35-3 .8-4.39a2.54 2.54 0 00-3.5-1.43c-1.9 1-2.4 4.81-2.09 6.7 0 .16.75 2.66.78 2.64-.08.6-.17 1.25-.24 2-.13 1.31-.27 2.8-.3 4.43a42.85 42.85 0 00.12 5.25 34.26 34.26 0 001 5.8v.07c-.34-.53-1.33-2-1.42-2.08-1.26-1.45-4.52-3.51-6.5-2.67a2.53 2.53 0 00-1.12 3.6c.94 1.12 2.68 1.78 4.1 1.99z"/><path d="M205.29 427.22s.69-2.5.71-2.67c.26-1.89-.34-5.71-2.27-6.64a2.54 2.54 0 00-3.45 1.53c-.52 1.42.14 3.16.91 4.36.92 1.41 4.1 3.42 4.1 3.42zM427.56 423.61c1.63.71 5.6.62 5.61.62s-.86-2.6-.93-2.75c-.88-1.83-3.63-4.84-5.88-4.54a2.69 2.69 0 00-2.15 3.36c.38 1.55 1.97 2.7 3.35 3.31z"/><path d="M428.94 435.12c1.68.25 5.23-.78 5.51-.86a46.77 46.77 0 002.15 5.95c.49 1.13 1 2.25 1.56 3.37-.33-.47-.62-.89-.67-.95-1.32-1.53-4.77-3.7-6.86-2.82a2.69 2.69 0 00-1.19 3.81c.77 1.4 2.62 2.09 4.11 2.31s4.56-.6 5.36-.82l.63 1.28c1 2 2.06 4.08 3 6.11.33.71.64 1.43.95 2.14l-.58-.82c-1.32-1.53-4.78-3.71-6.86-2.82a2.69 2.69 0 00-1.19 3.81c.77 1.4 2.61 2.09 4.11 2.31a16.93 16.93 0 005.21-.79c.3.75.59 1.49.84 2.22.16.51.35 1 .48 1.49l.42 1.51c.23 1 .48 2 .68 2.91.15.66.27 1.29.4 1.93-.32-.72-1-2.1-1.06-2.21-1.08-1.71-4.16-4.39-6.35-3.83a2.67 2.67 0 00-1.75 3.58c.54 1.5 2.26 2.47 3.71 2.91s5.1 0 5.54 0c.22 1.05.41 2.08.58 3.05.38 2.14.66 4.06.88 5.68h1.48c-.26-1.68-.6-3.68-1-5.93-.21-1.07-.46-2.2-.72-3.37a27.62 27.62 0 003.09-1.46 19.13 19.13 0 004.52 2.91c-.41 1-.81 2-1.2 2.86-.83 1.89-1.61 3.57-2.29 5H454c.59-1.31 1.24-2.81 1.92-4.46.42-1 .84-2.1 1.26-3.21.43.08 3.91.79 5.54.43 1.47-.34 3.25-1.17 3.91-2.63a2.67 2.67 0 00-1.48-3.7c-2.14-.72-5.42 1.72-6.62 3.34-.07.1-.72 1.23-1.12 1.94.17-.45.34-.9.51-1.37.34-.93.66-1.87 1-2.89l.45-1.49c.16-.5.26-1.05.4-1.57.29-1.23.53-2.48.74-3.75.82.29 3.74 1.31 5.25 1.2s3.4-.66 4.27-2a2.68 2.68 0 00-.9-3.88c-2-1-5.62.88-7.05 2.3-.09.09-1 1.23-1.5 1.86.12-.76.25-1.52.34-2.3.28-2.24.5-4.53.72-6.8.06-.7.14-1.39.21-2.08.29.1 3.74 1.39 5.43 1.27 1.51-.11 3.4-.66 4.27-2a2.67 2.67 0 00-.9-3.88c-2-1-5.62.87-7.05 2.3-.11.1-1.42 1.75-1.73 2.18.16-1.53.33-3.05.57-4.55a47.28 47.28 0 011.3-6c.14.06 3.73 1.41 5.46 1.29 1.51-.11 3.4-.66 4.27-2a2.68 2.68 0 00-.9-3.88c-2-1-5.62.87-7.05 2.3-.11.11-1.52 1.88-1.76 2.21 0-.11.06-.23.09-.34a34.09 34.09 0 012.37-5.66c.52-1 1.07-1.94 1.62-2.84.64.32 3.6 1.76 5.17 1.82s3.45-.28 4.46-1.52a2.68 2.68 0 00-.47-4c-1.88-1.25-5.68.25-7.26 1.51l-1.45 1.45c.25-.4.51-.82.76-1.2a62.377 62.377 0 014.14-5.45c.79 0 4-.11 5.4-.77s2.93-1.84 3.26-3.4a2.68 2.68 0 00-2.24-3.3c-2.25-.24-4.93 2.84-5.75 4.69-.07.16-.9 2.78-.85 2.78q-.63.72-1.35 1.59c-.89 1.08-1.87 2.31-2.85 3.72a46.45 46.45 0 00-2.95 4.7 34.63 34.63 0 00-2.53 5.68.19.19 0 010 .07v-2.66c-.26-2-1.94-5.72-4.17-6.14a2.69 2.69 0 00-3.09 2.52c-.13 1.6 1 3.19 2.15 4.2s4.8 2.23 5.08 2.32a46 46 0 00-1.49 6.15c-.22 1.21-.4 2.44-.56 3.67v-1.16c-.26-2-1.94-5.73-4.17-6.14a2.69 2.69 0 00-3.08 2.55c-.13 1.59 1 3.19 2.15 4.19s4.13 2 4.93 2.28c-.06.47-.13.94-.18 1.41-.27 2.28-.54 4.54-.86 6.76-.11.78-.25 1.55-.39 2.31v-1c-.26-2-1.94-5.72-4.17-6.14a2.69 2.69 0 00-3.09 2.52c-.13 1.6 1 3.19 2.15 4.2a17 17 0 004.78 2.22c-.16.78-.32 1.56-.52 2.31-.14.51-.25 1-.42 1.51l-.48 1.49c-.34.94-.69 1.9-1 2.81-.24.63-.49 1.22-.73 1.82.12-.77.33-2.3.33-2.43a10.42 10.42 0 00-1.5-5.06 3.9 3.9 0 000-.59 2.67 2.67 0 00-3.27-2.27c-2.19.58-3.58 4.42-3.68 6.44 0 .12.07 1.42.13 2.24-.11-.48-.21-.94-.33-1.43-.23-1-.49-1.93-.76-3l-.45-1.5c-.15-.5-.36-1-.53-1.53-.43-1.18-.93-2.36-1.46-3.53.85-.21 3.85-1 5.05-1.9s2.47-2.42 2.46-4a2.68 2.68 0 00-2.9-2.74c-2.25.25-4.2 3.83-4.61 5.81 0 .12-.16 1.58-.21 2.38-.33-.71-.64-1.41-1-2.11-1-2-2.09-4-3.16-6.07l-1-1.85c.3-.07 3.89-.91 5.23-1.94s2.47-2.42 2.46-4a2.67 2.67 0 00-2.89-2.74c-2.25.24-4.21 3.83-4.62 5.81 0 .15-.22 2.24-.24 2.77-.71-1.36-1.4-2.73-2-4.1a47.9 47.9 0 01-2.21-5.71c.14 0 3.88-.88 5.26-1.94 1.2-.92 2.47-2.42 2.46-4a2.68 2.68 0 00-2.89-2.75c-2.25.25-4.21 3.83-4.61 5.81 0 .16-.24 2.41-.25 2.82 0-.11-.08-.23-.11-.34a33.62 33.62 0 01-1.15-6c-.13-1.12-.18-2.2-.22-3.25.72-.09 4-.52 5.32-1.34s2.72-2.14 2.88-3.73a2.67 2.67 0 00-2.57-3c-2.26 0-4.6 3.34-5.22 5.27 0 .1-.26 1.2-.42 2v-1.43c0-1.71.11-3.28.22-4.66.07-.79.14-1.5.22-2.17.66-.45 3.27-2.3 4.08-3.62s1.43-3.15.84-4.63a2.68 2.68 0 00-3.69-1.52c-2 1-2.54 5.09-2.2 7.08 0 .17.78 2.82.82 2.8-.09.64-.18 1.32-.26 2.07-.14 1.39-.28 3-.32 4.68a50.32 50.32 0 00.13 5.55 35.36 35.36 0 001 6.13v.07c-.36-.56-1.41-2.09-1.5-2.2-1.33-1.53-4.78-3.71-6.86-2.82a2.67 2.67 0 00-1.19 3.8c.82 1.29 2.66 1.99 4.16 2.2z"/><path d="M467.76 424.49s.72-2.64.74-2.82c.28-2-.36-6-2.39-7a2.69 2.69 0 00-3.65 1.62c-.55 1.5.15 3.34 1 4.61.93 1.47 4.29 3.59 4.3 3.59z"/></g><g stroke="#263238" stroke-linecap="round" stroke-linejoin="round"><path fill="#fff" d="M390.43 475.55l67.69-137.38H322.75l67.68 137.38z"/><path fill="#263238" d="M390.43 475.55l-17.48-137.38h85.17l-67.69 137.38z"/></g><g stroke="#263238" stroke-linecap="round" stroke-linejoin="round"><circle cx="390.43" cy="281.25" r="56.8" fill="#fff"/><path d="M441.12 277.54a50.63 50.63 0 00-13.5-30.93M420 239.88a50.74 50.74 0 00-12.2-6.42" fill="#fff"/><path d="M438 250.15a56.8 56.8 0 01-101 50.34 56.8 56.8 0 10101-50.34z" fill="#263238"/></g><g stroke="#263238" stroke-linecap="round" stroke-linejoin="round"><path fill="#263238" d="M72.9 279.63h72.19v72.19H72.9z"/><path fill="#fff" d="M55.92 279.63h57.33v72.19H55.92z"/></g><g stroke="#263238" stroke-linecap="round" stroke-linejoin="round"><path fill="#263238" d="M67.09 351.76h123.79v123.79H67.09z"/><path fill="#fff" d="M37.97 351.76h98.3v123.79h-98.3z"/></g><g stroke="#263238" stroke-linecap="round" stroke-linejoin="round"><path fill="#3f36b9" d="M302.07 154.26l-41.45-34.68-53.47 29.22 41.46 36.19 53.46-30.73z"/><path fill="none" d="M344.34 55.09L310.9 74.45M351.41 51l-3.42 1.98"/><path fill="#3f36b9" d="M291 79.1V29.43l41.45 34.69v49.67L291 79.1z"/><path fill="none" d="M177.3 49.49l24.24 20.02M171.8 44.95l2.67 2.2"/><path fill="#3f36b9" d="M237.34 28.79v49.66l-53.46 29.22V58.01l53.46-29.22z"/><path fill="none" stroke-dasharray="3" d="M260.62 49.47l-53.47 29.22h0v49.67l41.46 36.2 53.46-30.73V84.16l-41.45-34.69z"/><path fill="none" stroke-dasharray="3" d="M207.15 78.69l41.46 36.2 52.62-30.47M248.61 114.89v49.67"/><path fill="none" stroke-dasharray="3" d="M260.62 49.47v49.67l32.19 26.62M260.62 99.14l-46.27 25.04"/><path fill="#3f36b9" d="M181.94 96.79v49.67l41.46 36.2v-49.67l-41.46-36.2z"/><path fill="none" d="M164.34 158.82l-2.77 1.61M196.73 140.07l-29.47 17.06M202.08 136.98l-2.83 1.64"/><path fill="#3f36b9" d="M271.47 189v-49.67l53.47-30.73v49.67L271.47 189z"/><path fill="none" d="M330.44 175.1l3.09 2.56M299.8 149.67l28.56 23.7"/><path fill="#3f36b9" d="M302.07 57.66l-41.45-34.69-53.47 29.22 41.46 36.2 53.46-30.73z"/><path fill="none" d="M253.9 16.71v-5.38M253.9 53.35V20.49"/></g><path d="M220.41 457.58s-5.26 8.45-6.76 9.77-5.26 4.13-6.77 5.64.38 3.38 2.07 3.57 22.17 0 22.17 0 2.26-.38 2.45-1.51 1.12-4.51-.19-7.51a18.09 18.09 0 01-1.32-6.39l.38-.94-.38-2.26z" fill="#fff" stroke="#263238" stroke-linecap="round" stroke-linejoin="round"/><path d="M209 476.56c1.69.19 22.17 0 22.17 0s2.26-.38 2.45-1.51a19.48 19.48 0 00.49-4.25c-3.1.92-6.24 2.19-6.24 2.19h-20.99c-1.5 1.5.38 3.38 2.12 3.57zM228.79 471.07l-1.46 5.08M222.74 468.77a.81.81 0 01-.34-.08c-3.9-1.73-6.44-.55-6.55-.49a.84.84 0 01-.75-1.51c.14-.07 3.32-1.6 8 .47a.84.84 0 01-.34 1.61z" fill="#fff" stroke="#263238" stroke-linecap="round" stroke-linejoin="round"/><path d="M223.46 466.59a.83.83 0 01-.34-.07c-3.9-1.74-6.44-.55-6.54-.5a.84.84 0 01-.75-1.51c.13-.07 3.31-1.6 8 .47a.84.84 0 01-.34 1.61z" fill="#fff" stroke="#263238" stroke-linecap="round" stroke-linejoin="round"/><path d="M224.19 464.41a.8.8 0 01-.34-.07c-3.9-1.74-6.44-.55-6.55-.5a.84.84 0 01-.75-1.51c.14-.06 3.32-1.6 8 .47a.84.84 0 01-.34 1.61zM292.56 457.58s5.27 8.45 6.77 9.77 5.26 4.13 6.76 5.64-.37 3.38-2.06 3.57-22.18 0-22.18 0-2.25-.38-2.44-1.51-1.13-4.51.19-7.51a18.21 18.21 0 001.31-6.39l-.37-.94.37-2.26z" fill="#fff" stroke="#263238" stroke-linecap="round" stroke-linejoin="round"/><path d="M304 476.56c-1.69.19-22.18 0-22.18 0s-2.25-.38-2.44-1.51a18.87 18.87 0 01-.49-4.25c3.1.92 6.24 2.19 6.24 2.19h20.93c1.54 1.5-.34 3.38-2.06 3.57zM284.19 471.07l1.45 5.08M290.24 468.77a.84.84 0 00.34-.08c3.9-1.73 6.44-.55 6.55-.49a.84.84 0 00.74-1.51c-.13-.07-3.31-1.6-8 .47a.84.84 0 00-.43 1.11.85.85 0 00.8.5z" fill="#fff" stroke="#263238" stroke-linecap="round" stroke-linejoin="round"/><path d="M289.51 466.59a.8.8 0 00.34-.07c3.9-1.74 6.45-.55 6.55-.5a.84.84 0 00.75-1.51c-.14-.07-3.31-1.6-8 .47a.84.84 0 00.34 1.61z" fill="#fff" stroke="#263238" stroke-linecap="round" stroke-linejoin="round"/><path d="M288.79 464.41a.83.83 0 00.34-.07c3.9-1.74 6.44-.55 6.55-.5a.85.85 0 001.12-.38.86.86 0 00-.38-1.13c-.13-.06-3.31-1.6-8 .47a.84.84 0 00.34 1.61z" fill="#fff" stroke="#263238" stroke-linecap="round" stroke-linejoin="round"/><path d="M296.17 452.2a72.83 72.83 0 00-3.39-6.53 31.24 31.24 0 00.73-6.05c0-2.91-3.27-17.18-3.27-17.18l-.16.19c-.54-5.51-1.23-10.1-1.38-10.71-.26-1-7.15-72.27-7.15-72.27l-2.3-18.13-22.74 1.12-22.73-1.12-2.3 18.13s-6.9 71.25-7.15 72.27c-.19.74-1.18 7.38-1.71 14.38-.78 4.18-2.06 11.31-2.06 13.32a31.12 31.12 0 00.7 5.93 2.23 2.23 0 010 .23 69.66 69.66 0 00-3.32 6.42c-.49 1.45.66 8.28.66 8.28h.1v.18l4.24.15c.93.09 2 .2 3 .33a23.39 23.39 0 016.78 1.94l4.84-8.71-1.7-3.87 1.94-11.38-.17-.18 11.27-45.42 7.67-35.47 7.67 35.47 12.91 50.05 1.18 6.93-1.7 3.87 4.84 8.71a23.26 23.26 0 016.78-1.94c3.87-.48 7.31-.67 7.31-.67s1.09-6.82.61-8.27z" fill="#263238" stroke="#263238" stroke-linecap="round" stroke-linejoin="round"/><path fill="#575757" stroke="#263238" stroke-linecap="round" stroke-linejoin="round" d="M240.73 324.57h30.43v3.29h-30.43zM273.92 324.57h5.88v3.29h-5.88zM233.29 324.57h4.67v3.29h-4.67z"/><path fill="#fff" stroke="#263238" stroke-linecap="round" stroke-linejoin="round" d="M252.48 324.92h7.61v2.77h-7.61zM222.74 264.09s-14 48.75-14.63 50 3 .61 6.5 1.22 8.33-2 8.94-3 5.69-16.86 5.69-16.86zM223.38 279.89l-.59-1.41M227.97 291.01l-3.92-9.49M223.05 305.82l1.11.8"/><path d="M212.68 303.62a33.35 33.35 0 014.65-1.37c.47 0 2.65 1.44 4.42 2.67M287.74 261.25s16.05 42.86 16.46 44.48a11.05 11.05 0 01.61 4.47c-.21 1.83-3.05 3.05-3.66 3.05s-5.08-2.84-6.91-3.66-7.31-3.45-7.31-3.45l-2.84-9.14zM288.64 275.16l.27-1.05M284.81 290.23l3.4-13.37M294.64 297.88l-6.55 4.1" fill="#fff" stroke="#263238" stroke-linecap="round" stroke-linejoin="round"/><path d="M245.69 251.9l-22.95 12.19 9.95 52.82s-.81 4.87-.2 5.89a5.39 5.39 0 001.62 1.62H279s3-2.84 3-3.45v-2.64l5.69-57.08-22.69-9.06z" fill="#fff" stroke="#263238" stroke-linecap="round" stroke-linejoin="round"/><path fill="#263238" stroke="#263238" stroke-linecap="round" stroke-linejoin="round" d="M250.84 254.31l3.01 8.51-4.07 51.72 6.37 10.1 5.49-10.98-5.67-50.84 3.55-7.62-5.14-5.67-3.54 4.78z"/><path fill="#fff" stroke="#263238" stroke-linecap="round" stroke-linejoin="round" d="M245.35 247.4l-.54 5.67 4.79 7.8 3.54-8.51-7.79-4.96zM256.33 252.54l2.83 9.04 5.85-9.39-2.66-5.5-6.02 5.85zM270.88 312.44l-.81-6.3 5.48 1.02-4.67 5.28z"/><path d="M255.85 293.34a34.25 34.25 0 01-5.08-1c-1.83-.61-3.05.2-1.62 2s6.5 2.64 7.11 2.64c0 0 1 5.28 3.86 6.3a14.9 14.9 0 004.46 1s1.43 2 3.25 2.24 6.1 3.25 6.1 3.25l2-4.67-4.47-3.66-4.46-7.69-4.26-1.42-3.66-1.22z" fill="#fff" stroke="#263238" stroke-linecap="round" stroke-linejoin="round"/><path d="M267.23 298.83l-1.83 1.83a7.75 7.75 0 01.2 1.62c0 .81-1.42.81-2.44.81a5.27 5.27 0 01-3-.81c-.82-.61-4.07-3.45-4.07-3.45l3.46-6.1-3.05 2a20.93 20.93 0 01-2.64 3.86c-1.22 1.22-1.63-.2-1.63-.2s1.22-3.86 2-4.87a45.8 45.8 0 013.66-3.46 8.09 8.09 0 012.44 0c1.42.21 4.26 1.83 5.48 2.64a6.87 6.87 0 012.44 3.25 6.68 6.68 0 01.2 1.43" fill="#fff" stroke="#263238" stroke-linecap="round" stroke-linejoin="round"/><path d="M261.94 302.89a3.8 3.8 0 01-.2-2.44 57.25 57.25 0 013.05-4.87M260.12 302.28a11 11 0 01-.69-.88c-.44-.63-.07-1.43-.07-2.1 0-1.22 3-6.16 3-6.16" fill="none" stroke="#263238" stroke-linecap="round" stroke-linejoin="round"/><path d="M300.13 301.27S305.21 309 305 311s-1.42 6.5-3.25 6.5-10-1-15.64-2-9.55-1.43-9.55-1.43l-5.69-1.62 3.86-9.35 3.7.78a37.18 37.18 0 015.36-.9c2.64-.2 11.46-2.31 11.46-2.31" fill="#fff" stroke="#263238" stroke-linecap="round" stroke-linejoin="round"/><path d="M278.47 304.79a11.78 11.78 0 01-1.63 6.5" fill="none" stroke="#263238" stroke-linecap="round" stroke-linejoin="round"/><path d="M210.75 307.56s-3.45 8.33-3.65 8.94.61 4.47 3.86 3.66 20.51-2.64 22.75-3.05 5.69-1 5.69-1h4.46c2 0 7.72 0 8.94-.4l4.88-1.63c1.22-.4 3.86-2 4.06-2.64s-.61-1.22-2.64-1-8.33.4-8.33.4 5.69-2.23 7.52-3 1.22-1.63 1.22-1.63a10.5 10.5 0 00-3.46.61c-1.42.61-15.44 2.44-15.44 2.44l-1.61-1.49a12.12 12.12 0 00.81-3.66c0-1.63-.81-2.84-1.83-2.44s-1.42 2.85-1.62 3.66-1.22 4.06-1.22 4.06l-.41 1.83s-8.32-1.63-10.76-2.64-7.52-2.44-8.33-2.24-2.44 2.44-2.85 3.46" fill="#fff" stroke="#263238" stroke-linecap="round" stroke-linejoin="round"/><path d="M228.9 310.47s-1.35 3 .27 4.88" fill="none" stroke="#263238" stroke-linecap="round" stroke-linejoin="round"/><path d="M231.8 299.77l6.2 12.57a1.35 1.35 0 001.21.76l22.55.23a1.36 1.36 0 001.28-1.85l-4.9-12.8a1.36 1.36 0 00-1.28-.87H233a1.37 1.37 0 00-1.2 1.96z" fill="#3f36b9" stroke="#263238" stroke-linecap="round" stroke-linejoin="round"/><path d="M259.1 310.41c-2 .2-8.33.4-8.33.4s5.69-2.23 7.52-3 1.22-1.63 1.22-1.63a10.5 10.5 0 00-3.46.61c-1.42.61-15.44 2.44-15.44 2.44l-1.61-1.46a12.12 12.12 0 00.81-3.66c0-1.63-.81-2.84-1.83-2.44s-1.42 2.85-1.62 3.66-1.22 4.06-1.22 4.06l-.41 1.83-2.14-.44a7.22 7.22 0 00.11 4.3 21.73 21.73 0 00.8 2.07h.22c2.23-.41 5.69-1 5.69-1h4.46c2 0 7.72 0 8.94-.4l4.88-1.63c1.22-.4 3.86-2 4.06-2.64s-.62-1.28-2.65-1.07z" fill="#fff" stroke="#263238" stroke-linecap="round" stroke-linejoin="round"/><path d="M261 311.74a39.16 39.16 0 01-4.82 2c-.6 0-7.82.8-7.82.8" fill="none" stroke="#263238" stroke-linecap="round" stroke-linejoin="round"/><path d="M218.62 460.67a4.1 4.1 0 01.2-.58c-.08.13-.17.26-.26.39zM242.22 228.76s-1.06-4.43-2.66-1.6.18 7.27.89 8 2.13-1.59 2.13-1.59M266.92 228.76s1.06-4.43 2.66-1.6-.18 7.27-.89 8-2.12-1.59-2.12-1.59" fill="#fff" stroke="#263238" stroke-linecap="round" stroke-linejoin="round"/><path d="M260.68 212.39c-6.06-2.88-15.52-.52-17.63 6.5-1.57 5.22-1.33 12.11-1.33 18 0 2.91 3.78 6.69 3.78 6.69l.29 5.52 9 5.52 7.56-5.23.29-5.23s4.06-3.49 4.65-6.1-.51-17.47-1.55-20.34a9.5 9.5 0 00-5.06-5.33z" fill="#fff" stroke="#263238" stroke-linecap="round" stroke-linejoin="round"/><path d="M251.79 219.51s-3-2.3-6.38.89M257.64 219.76a5.08 5.08 0 016.38.17" fill="#fff" stroke="#263238" stroke-linecap="round" stroke-linejoin="round" stroke-width="2"/><path d="M256.4 227a3.12 3.12 0 01-2.3 2.66M250.2 232s3.19 1.24 8.68 0M257.85 244.14c-.92.32-1.94.66-2.87.93-2.48.7-7.44-1.6-7.44-1.6M260.65 243.12l-1.24.47" fill="#fff" stroke="#263238" stroke-linecap="round" stroke-linejoin="round"/><path d="M261.29 222.33c0 .55-.33 1-.73 1s-.73-.45-.73-1 .33-1 .73-1 .73.45.73 1z" fill="#263238"/><ellipse cx="249.01" cy="222.33" rx=".73" ry="1" fill="#263238"/><path d="M257.19 220.79a9.77 9.77 0 00-.81 2.72 4 4 0 00.18 1.82" fill="none" stroke="#263238" stroke-linecap="round" stroke-linejoin="round"/><path d="M248.57 212.58s-.73-2.3 2.55-4.12 4.24-1.46 7.76-2.79 4.25-.49 3.88 1a6.89 6.89 0 01-1.82 2.79s2.67-2.31 3.64-1.82.13 4-.12 4.49 2.19-.37 3.4 2.55-.61 12.86-.61 12.86-1-3.89-1.21-5.34-1.11-6.69-3.28-7.52a21.69 21.69 0 00-9.34-1.46 11.34 11.34 0 01-4.85-.64z" fill="#263238"/><path d="M248.57 211.73s-2.79-1.21-4.73.49-.49 2.43-.73 3.15-1.58.12-2.67 3.52 1.45 6.43 1.45 6.43l.37 1.46s.73-4.25.73-5.22 1.82-2.06 2.18-3.27 1.09-4.25 3.88-5.46c0 0 .13-.83-.48-1.1z" fill="#263238"/><g fill="none" stroke="#263238" stroke-miterlimit="10"><path d="M479.5 475.55h5.5M20.89 475.55H475.5"/></g><g fill="none" stroke="#263238" stroke-linecap="round" stroke-linejoin="round"><path d="M81.65 100.498L96.5 85.65l14.85 14.85-14.85 14.849zM137.076 227.927l8.422-8.422 8.421 8.422-8.421 8.421zM443.314 155.806l8.422-8.422 8.421 8.422-8.421 8.422zM390.085 193.922l5.502-5.501 5.5 5.5-5.5 5.502zM48.17 148.55l5.501-5.501 5.501 5.501-5.5 5.502zM415.371 45.798l5.502-5.5 5.5 5.5-5.5 5.502z"/></g></svg>